<svg xmlns="http://www.w3.org/2000/svg" width="16.052" height="16.051" viewBox="0 0 16.052 16.051">
  <path id="Icon_ionic-ios-call" data-name="Icon ionic-ios-call" d="M20.079,17.071a13.483,13.483,0,0,0-2.817-1.885c-.844-.405-1.153-.4-1.751.033-.5.359-.819.694-1.392.568a8.3,8.3,0,0,1-2.8-2.069,8.242,8.242,0,0,1-2.069-2.8c-.121-.577.213-.894.568-1.392.43-.6.443-.907.033-1.751A13.217,13.217,0,0,0,7.973,4.965c-.614-.614-.752-.481-1.091-.359a6.206,6.206,0,0,0-1,.531A3.013,3.013,0,0,0,4.684,6.4c-.238.514-.514,1.471.89,3.97a22.152,22.152,0,0,0,3.895,5.194h0l0,0,0,0h0a22.238,22.238,0,0,0,5.194,3.895c2.5,1.4,3.456,1.128,3.97.89a2.962,2.962,0,0,0,1.266-1.2,6.206,6.206,0,0,0,.531-1C20.559,17.823,20.7,17.685,20.079,17.071Z" transform="translate(-4.49 -4.502)" fill="#4a4a4a"/>
</svg>
