<svg xmlns="http://www.w3.org/2000/svg" width="20.276" height="20.276" viewBox="0 0 20.276 20.276">
  <path id="Path_40" data-name="Path 40" d="M10.138,1.8a31.086,31.086,0,0,1,4.055.113,5.225,5.225,0,0,1,1.915.338,3.956,3.956,0,0,1,1.915,1.915,5.225,5.225,0,0,1,.338,1.915c0,1.014.113,1.352.113,4.055a31.085,31.085,0,0,1-.113,4.055,5.225,5.225,0,0,1-.338,1.915,3.956,3.956,0,0,1-1.915,1.915,5.225,5.225,0,0,1-1.915.338c-1.014,0-1.352.113-4.055.113a31.085,31.085,0,0,1-4.055-.113,5.225,5.225,0,0,1-1.915-.338,3.956,3.956,0,0,1-1.915-1.915,5.225,5.225,0,0,1-.338-1.915c0-1.014-.113-1.352-.113-4.055a31.086,31.086,0,0,1,.113-4.055,5.225,5.225,0,0,1,.338-1.915,4.046,4.046,0,0,1,.789-1.126,1.9,1.9,0,0,1,1.126-.789,5.225,5.225,0,0,1,1.915-.338A31.086,31.086,0,0,1,10.138,1.8m0-1.8A33.284,33.284,0,0,0,5.97.113,6.954,6.954,0,0,0,3.492.563,4.41,4.41,0,0,0,1.69,1.69a4.41,4.41,0,0,0-1.126,1.8A5.133,5.133,0,0,0,.113,5.97,33.284,33.284,0,0,0,0,10.138a33.284,33.284,0,0,0,.113,4.168,6.954,6.954,0,0,0,.451,2.478,4.41,4.41,0,0,0,1.126,1.8,4.41,4.41,0,0,0,1.8,1.126,6.954,6.954,0,0,0,2.478.451,33.283,33.283,0,0,0,4.168.113,33.283,33.283,0,0,0,4.168-.113,6.954,6.954,0,0,0,2.478-.451,4.726,4.726,0,0,0,2.929-2.929,6.954,6.954,0,0,0,.451-2.478c0-1.126.113-1.464.113-4.168a33.283,33.283,0,0,0-.113-4.168,6.954,6.954,0,0,0-.451-2.478,4.41,4.41,0,0,0-1.126-1.8,4.41,4.41,0,0,0-1.8-1.126A6.954,6.954,0,0,0,14.306.113,33.284,33.284,0,0,0,10.138,0m0,4.956a5.1,5.1,0,0,0-5.182,5.182,5.182,5.182,0,1,0,5.182-5.182m0,8.561a3.319,3.319,0,0,1-3.379-3.379,3.319,3.319,0,0,1,3.379-3.379,3.319,3.319,0,0,1,3.379,3.379,3.319,3.319,0,0,1-3.379,3.379M15.545,3.492a1.239,1.239,0,1,0,1.239,1.239,1.25,1.25,0,0,0-1.239-1.239" fill="#f2f2f2" fill-rule="evenodd"/>
</svg>
